PathFileType	3	(X/Y/Z)	D:\VICON_DB\Goncalves\Pilot01\09-03-2026\static_01.trc
DataRate	CameraRate	NumFrames	NumMarkers	Units	OrigDataRate	OrigDataStartFrame	OrigNumFrames
200.0	200.0	7	34	mm	200.0	281	321	
Frame#	Time	LASI			RASI			LPSI			RPSI			LTHI			LTHAP			LTHAD			LKNE			LKNM			LTIB			LTIAP			LTIAD			LANK			LMED			LHEE			LTOE			LFMH			LSMH			LVMH			RTHI			RTHAP			RTHAD			RKNE			RKNM			RTIB			RTIAP			RTIAD			RANK			RMED			RHEE			RTOE			RFMH			RSMH			RVMH			
		X1	Y1	Z1	X2	Y2	Z2	X3	Y3	Z3	X4	Y4	Z4	X5	Y5	Z5	X6	Y6	Z6	X7	Y7	Z7	X8	Y8	Z8	X9	Y9	Z9	X10	Y10	Z10	X11	Y11	Z11	X12	Y12	Z12	X13	Y13	Z13	X14	Y14	Z14	X15	Y15	Z15	X16	Y16	Z16	X17	Y17	Z17	X18	Y18	Z18	X19	Y19	Z19	X20	Y20	Z20	X21	Y21	Z21	X22	Y22	Z22	X23	Y23	Z23	X24	Y24	Z24	X25	Y25	Z25	X26	Y26	Z26	X27	Y27	Z27	X28	Y28	Z28	X29	Y29	Z29	X30	Y30	Z30	X31	Y31	Z31	X32	Y32	Z32	X33	Y33	Z33	X34	Y34	Z34	
281	1.4	113.23384	902.94531	-1062.5941	107.77566	903.39935	-1327.5557	305.57501	960.75006	-1166.38	302.55746	954.86322	-1229.1727	121.49474	693.26349	-1030.6283	138.53227	767.17133	-1017.02	166.11	629.47052	-1006.8719	219.71916	474.67081	-1023.7266	195.95158	464.66644	-1151.8323	257.82013	281.66074	-1004.3273	200.0818	357.10031	-1059.3236	215.90015	254.70959	-1032.0515	272.74243	70.350777	-1027.526	239.38277	81.106537	-1107.7871	314.82672	62.02409	-1080.7668	191.16063	71.796272	-1047.3235	133.95911	44.929646	-1072.8627	133.64847	39.201218	-1032.7268	149.22194	25.572374	-992.73737	153.86153	625.62634	-1379.8591	116.44994	751.30792	-1355.9401	101.33175	659.4339	-1333.4989	203.30492	490.33102	-1363.7123	202.28566	433.58618	-1243.6194	224.60509	296.14392	-1382.7197	185.00154	345.84799	-1327.6063	191.23665	264.49295	-1330.4919	268.98834	62.249916	-1355.697	233.60902	89.693123	-1275.8556	304.96991	58.175671	-1313.9758	176.54875	68.951393	-1340.1962	126.06416	49.21286	-1315.1511	123.82228	40.497875	-1351.2781	139.82632	20.598145	-1388.9032
282	1.405	113.17577	902.92517	-1062.5742	107.71213	903.38068	-1327.5583	305.41699	960.74207	-1166.63	302.51956	954.86536	-1229.1725	121.47296	693.24548	-1030.615	138.49918	767.15234	-1017.0233	166.07639	629.45636	-1006.8661	219.70706	474.65051	-1023.7329	195.93193	464.66965	-1151.8282	257.79996	281.65585	-1004.3323	200.08211	357.10562	-1059.2954	215.90347	254.70909	-1032.0396	272.66818	70.355064	-1027.4457	239.39012	81.12397	-1107.7931	314.85281	62.011341	-1080.7693	191.13115	71.796829	-1047.3477	133.94794	44.918613	-1072.8772	133.65033	39.185501	-1032.7125	149.2256	25.553242	-992.73486	153.78398	625.60992	-1379.8699	116.41045	751.28308	-1355.9093	101.26939	659.42194	-1333.4904	203.23904	490.33255	-1363.7271	202.24796	433.6185	-1243.6167	224.57663	296.12238	-1382.7115	185.00478	345.82611	-1327.5862	191.21347	264.48523	-1330.4901	268.99393	62.238415	-1355.6903	233.6088	89.693489	-1275.8456	304.97806	58.159561	-1313.9489	176.56886	68.964279	-1340.1893	126.07687	49.192982	-1315.1173	123.81674	40.496216	-1351.2802	139.80222	20.612263	-1388.9629
283	1.41	113.12659	902.91589	-1062.5621	107.61327	903.35773	-1327.5848	305.19601	960.71802	-1166.59	302.43533	954.87695	-1229.1836	121.44917	693.23492	-1030.5914	138.68597	766.88751	-1017.2187	166.04721	629.44354	-1006.8585	219.69533	474.63049	-1023.7308	195.89207	464.66827	-1151.845	257.79944	281.64069	-1004.3237	199.97314	356.92484	-1059.3767	215.90485	254.68761	-1032.028	272.89395	70.37487	-1027.2567	239.159	81.139725	-1107.9833	314.83859	62.009476	-1080.7368	191.15636	71.778015	-1047.3085	133.96498	44.914112	-1072.8615	133.64204	39.179348	-1032.7079	149.2361	25.527615	-992.74426	153.571	625.85791	-1379.9751	116.37643	751.2627	-1355.8765	101.23047	659.43127	-1333.4744	203.21735	490.31784	-1363.7133	202.19998	433.57394	-1243.6125	224.60249	296.11777	-1382.6843	184.96892	345.85522	-1327.5652	191.20329	264.47302	-1330.4883	268.99789	62.248985	-1355.6818	233.606	89.676857	-1275.842	304.97958	58.161003	-1313.9478	176.57451	68.951042	-1340.1859	126.10371	49.178936	-1315.0956	123.8168	40.484749	-1351.2734	139.79225	20.586071	-1388.944
284	1.415	113.07	902.89587	-1062.5542	107.55244	903.3335	-1327.5616	304.63901	960.66003	-1167.45	302.35483	954.86938	-1229.1893	121.41335	693.22162	-1030.5798	138.65123	766.87848	-1017.2177	166.02513	629.41528	-1006.8555	219.66948	474.61368	-1023.7342	195.87057	464.65945	-1151.8298	257.79022	281.62802	-1004.3281	200.01801	357.05341	-1059.3997	215.89682	254.69518	-1032.0239	272.89404	70.357803	-1027.2598	239.16869	81.129242	-1107.984	314.84995	61.995609	-1080.7394	191.13414	71.816246	-1047.3025	133.95798	44.914482	-1072.859	133.63489	39.169369	-1032.7034	149.22888	25.519964	-992.74133	153.69182	625.59167	-1379.837	116.34763	751.24365	-1355.8274	101.04501	659.47388	-1333.6368	203.19514	490.30484	-1363.6984	202.16187	433.52112	-1243.603	224.56145	296.09772	-1382.7	184.95117	345.82837	-1327.5643	191.20514	264.45712	-1330.4543	268.99405	62.238651	-1355.6876	233.60808	89.675491	-1275.8418	304.99106	58.140198	-1313.9078	176.52498	68.968147	-1340.184	126.09283	49.169502	-1315.1031	123.80872	40.485889	-1351.2705	139.79259	20.614958	-1388.9519
285	1.42	113.01172	902.86432	-1062.5431	107.47273	903.30048	-1327.5472	304.34604	960.63898	-1167.8	302.26947	954.87109	-1229.21	121.38195	693.20349	-1030.5637	138.60417	766.86224	-1017.2122	166.00278	629.40503	-1006.8451	219.65176	474.60919	-1023.738	195.85301	464.6474	-1151.8214	257.78256	281.62057	-1004.3282	200.00444	357.06085	-1059.3986	215.89006	254.68857	-1032.0243	273.0675	70.250114	-1027.3318	239.36302	81.117203	-1107.8156	314.86084	61.980339	-1080.7311	191.11382	71.776848	-1047.3418	133.94693	44.891998	-1072.8577	133.63588	39.158401	-1032.7112	149.22623	25.508272	-992.74109	153.65491	625.58911	-1379.8259	116.2741	751.24567	-1355.8308	100.98003	659.47223	-1333.6586	203.17215	490.30145	-1363.7024	202.18817	433.52725	-1243.6316	224.56636	296.10236	-1382.6707	184.93718	345.78864	-1327.5792	191.18628	264.45374	-1330.4645	268.98627	62.246185	-1355.6909	233.60423	89.670921	-1275.8289	304.9761	58.139385	-1313.929	176.53429	68.928505	-1340.177	126.10207	49.150429	-1315.075	123.81655	40.471527	-1351.2708	139.75195	20.668335	-1388.9963
286	1.425	112.96769	902.86481	-1062.5314	107.42139	903.26917	-1327.5212	304.452	960.71002	-1167.74	302.21884	954.87231	-1229.2108	121.34704	693.19489	-1030.5583	138.5775	766.8559	-1017.1929	165.97633	629.39459	-1006.8387	219.62988	474.6087	-1023.7275	195.82327	464.63882	-1151.8168	257.76401	281.62735	-1004.3335	199.99612	357.05499	-1059.384	215.88805	254.68213	-1032.0199	272.91205	70.354134	-1027.2736	239.36649	81.100998	-1107.7992	314.83682	61.999031	-1080.7435	191.11101	71.770905	-1047.3425	133.95476	44.892014	-1072.8611	133.62514	39.144878	-1032.7145	149.22786	25.499065	-992.74719	153.63312	625.53711	-1379.7886	116.26151	751.20837	-1355.7653	100.94809	659.41559	-1333.6146	203.13976	490.27069	-1363.6952	202.13864	433.59845	-1243.5924	224.56763	296.10968	-1382.6334	184.92152	345.78943	-1327.5513	191.18233	264.452	-1330.4598	268.98172	62.222973	-1355.6653	233.58583	89.671227	-1275.8263	304.97678	58.151169	-1313.9222	176.5336	68.910706	-1340.1711	126.08051	49.144634	-1315.1121	123.81358	40.461159	-1351.2797	139.61877	20.65703	-1389.1199
287	1.43	112.90692	902.85876	-1062.5256	107.36939	903.26031	-1327.4816	304.62201	960.71204	-1167.26	302.12524	954.84991	-1229.2222	121.30722	693.18488	-1030.5541	138.55818	766.83197	-1017.1696	165.9541	629.39502	-1006.8297	219.60588	474.60767	-1023.7321	195.80501	464.63147	-1151.8141	257.73376	281.63651	-1004.319	199.9832	357.0621	-1059.379	215.86617	254.67841	-1032.0293	272.685	70.32106	-1027.4557	239.36302	81.113716	-1107.8003	314.84418	61.995243	-1080.7478	191.09436	71.813339	-1047.3094	133.94293	44.892059	-1072.8591	133.63365	39.149956	-1032.7054	149.22812	25.510479	-992.7345	153.58888	625.508	-1379.7849	116.24686	751.15588	-1355.7424	100.90146	659.41748	-1333.6304	203.11626	490.27112	-1363.6855	202.11438	433.51205	-1243.6173	224.53755	296.09488	-1382.6403	184.90407	345.78259	-1327.5641	191.15915	264.43253	-1330.4615	268.98096	62.217506	-1355.6744	233.59894	89.66153	-1275.8312	304.9808	58.141571	-1313.9182	176.51596	68.907867	-1340.1714	126.09294	49.13707	-1315.0912	123.81106	40.460724	-1351.2657	139.75914	20.634535	-1388.9619
